# xmcd
#
# Track frame offsets:
#	150
#	13889
#	33290
#	57692
#	82435
#	107906
#	128913
#	141128
#	161509
#	173564
#	193766
#	216264
#	240806
#	257360
#	284315
#	297604
#	310484
#	326842
#
# Disc length: 4550 seconds
#
# Revision: 4
# Processed by: cddbd v1.5.2PL0 Copyright (c) Steve Scherf et al.
# Submitted via: EZCDAudioConverter 7.0.6.1
#
DISCID=1611c412
DTITLE=Lightnin' Hopkins - His Blues 2/2
DYEAR=1900
DGENRE=Electric Blues, Country Blues, Texas Blues
TTITLE0=Mojo Hand
TTITLE1=Coon Is Hard To Catch
TTITLE2=Happy Blues For John Glenn
TTITLE3=Ida Mae
TTITLE4=Meet You At The Chicken Shack
TTITLE5=I Got Tired
TTITLE6=Trouble In Mind [Live]
TTITLE7=Leave Jike Mary Alone [Live]
TTITLE8=Baby Please Don't Go  [Live]
TTITLE9=Bud Russell Blues
TTITLE10=Tom Moore Blues
TTITLE11=Slavery Time
TTITLE12=Black Cadillac
TTITLE13=I'm Gonna Build Me A Heaven On My Own
TTITLE14=Sinner's Prayer
TTITLE15=Long Way From Home
TTITLE16=Change My Way Of Livin'
TTITLE17=Up On Telegraph Avenue
EXTD=
EXTT0=
EXTT1=
EXTT2=
EXTT3=
EXTT4=
EXTT5=
EXTT6=
EXTT7=
EXTT8=
EXTT9=
EXTT10=
EXTT11=
EXTT12=
EXTT13=
EXTT14=
EXTT15=
EXTT16=
EXTT17=
PLAYORDER=
